# xmcd
# 
# Track frame offsets:
#     150
#     98042
#     140175
# 
# Disc length: 2596
# 
# Revision: 4
# Processed by: cddbd v1.5.2PL0 Copyright (c) Steve Scherf et al.
# Submitted via: BonkEnc v1.0.15
# 
DISCID=250a2203
DTITLE=Various Artist - Cha Tao The Way Of Tea
DYEAR=1995
DGENRE=New Age
TTITLE0=Cha Toa - Elegance
TTITLE1=Cha Tao - Purity
TTITLE2=Cha Tao - Respect
EXTD=
EXTT0=
EXTT1=
EXTT2=
PLAYORDER=
